# xmcd
#
# Track frame offsets:
#       150
#       15710
#       27271
#       39156
#       57396
#       74038
#       89962
#       108308
#       128365
#       142459
#       160282
#       177243
#       191415
#       206053
#       224800
#
# Disc length: 3532 seconds
#
# Revision: 1
# Processed by: cddbd v1.5.2PL0 Copyright (c) Steve Scherf et al.
# Submitted via: FreeDbEdit v0.1
#
DISCID=ea0dca0f
DTITLE=Various Artist - Pickin' on Southern Rock
DYEAR=2001
DGENRE=Country
TTITLE0=Hot 'Lanta
TTITLE1=Tush
TTITLE2=Saturday Night Special
TTITLE3=Life in the Fastlane
TTITLE4=Breakdown
TTITLE5=Ramblin' Man
TTITLE6=Sleeping Bag
TTITLE7=That Smell
TTITLE8=Take It Easy
TTITLE9=Southbound
TTITLE10=Tube Snake Boogie
TTITLE11=The Needle and the Spoon
TTITLE12=Sharp Dressed Man
TTITLE13=Statesboro Blues
TTITLE14=Free Bird
EXTD=YEAR: 2001
EXTT0=
EXTT1=
EXTT2=
EXTT3=
EXTT4=
EXTT5=
EXTT6=
EXTT7=
EXTT8=
EXTT9=
EXTT10=
EXTT11=
EXTT12=
EXTT13=
EXTT14=
PLAYORDER=
